<svg width="69" height="70" viewBox="0 0 69 70" fill="none" xmlns="http://www.w3.org/2000/svg">
<circle cx="34.5" cy="34.9973" r="34.5" fill="#F4F1FC"/>
<g clip-path="url(#clip0)">
<path d="M41.3741 17.4973C39.5615 17.6227 37.4429 18.7829 36.2083 20.2938C35.0821 21.6644 34.1556 23.7002 34.5168 25.6785C36.4973 25.7401 38.5437 24.5523 39.7294 23.0159C40.8386 21.5858 41.678 19.5628 41.3741 17.4973Z" fill="black"/>
<path d="M48.537 28.9042C46.7967 26.7218 44.3508 25.4553 42.0409 25.4553C38.9916 25.4553 37.7017 26.9152 35.5831 26.9152C33.3986 26.9152 31.739 25.4596 29.1019 25.4596C26.5115 25.4596 23.7533 27.0427 22.0044 29.7499C19.5458 33.5622 19.9666 40.7298 23.9509 46.8348C25.3768 49.0193 27.2808 51.4758 29.7713 51.4971C31.9876 51.5183 32.6124 50.0755 35.615 50.0606C38.6176 50.0436 39.1871 51.5162 41.3992 51.4928C43.8918 51.4737 45.8999 48.7516 47.3258 46.5671C48.3479 45.001 48.7283 44.2126 49.5209 42.4446C43.7558 40.2495 42.8314 32.0513 48.537 28.9042Z" fill="black"/>
</g>
<defs>
<clipPath id="clip0">
<rect width="34" height="34" fill="white" transform="translate(18 17.4973)"/>
</clipPath>
</defs>
</svg>
