<svg width="69" height="70" viewBox="0 0 69 70" fill="none" xmlns="http://www.w3.org/2000/svg">
<circle cx="34.5" cy="34.9973" r="34.5" fill="#F4F1FC"/>
<g clip-path="url(#clip0)">
<path d="M25.5351 38.0438L24.3516 42.462L20.026 42.5535C18.7333 40.1558 18 37.4125 18 34.4972C18 31.6782 18.6856 29.0198 19.9008 26.6791H19.9017L23.7528 27.3851L25.4398 31.213C25.0867 32.2424 24.8942 33.3474 24.8942 34.4972C24.8944 35.7451 25.1204 36.9408 25.5351 38.0438Z" fill="#FBBB00"/>
<path d="M51.7033 31.3215C51.8985 32.3498 52.0003 33.4119 52.0003 34.4973C52.0003 35.7144 51.8723 36.9016 51.6285 38.0468C50.801 41.9437 48.6386 45.3465 45.6431 47.7545L45.6422 47.7536L40.7916 47.5061L40.1051 43.2205C42.0927 42.0548 43.6461 40.2306 44.4644 38.0468H35.374V31.3215H44.597H51.7033Z" fill="#518EF8"/>
<path d="M45.6422 47.7537L45.6431 47.7546C42.7298 50.0963 39.029 51.4974 35.0004 51.4974C28.5264 51.4974 22.8977 47.8788 20.0264 42.5537L25.5355 38.0441C26.9711 41.8756 30.6672 44.6031 35.0004 44.6031C36.8629 44.6031 38.6078 44.0996 40.105 43.2206L45.6422 47.7537Z" fill="#28B446"/>
<path d="M45.8506 21.411L40.3434 25.9198C38.7938 24.9512 36.962 24.3916 34.9996 24.3916C30.5684 24.3916 26.8031 27.2442 25.4394 31.2131L19.9013 26.6792H19.9004C22.7297 21.2242 28.4293 17.4973 34.9996 17.4973C39.1244 17.4973 42.9064 18.9666 45.8506 21.411Z" fill="#F14336"/>
</g>
<defs>
<clipPath id="clip0">
<rect width="34" height="34" fill="white" transform="translate(18 17.4973)"/>
</clipPath>
</defs>
</svg>
