<svg width="69" height="70" viewBox="0 0 69 70" fill="none" xmlns="http://www.w3.org/2000/svg">
<circle cx="34.5" cy="34.9973" r="34.5" fill="#F4F1FC"/>
<rect x="23" y="22.4973" width="24" height="24" fill="#F4F1FC"/>
<g clip-path="url(#clip0)">
<path d="M46.2129 35.9537C45.6632 35.2596 45.8205 34.9507 46.2129 34.3302C46.22 34.3232 50.7576 28.053 51.2251 25.9266L51.2279 25.9252C51.4603 25.1502 51.2279 24.5807 50.1045 24.5807H46.3872C45.4408 24.5807 45.0045 25.0695 44.7707 25.6163C44.7707 25.6163 42.8781 30.1468 40.2006 33.0836C39.3364 33.9322 38.9369 34.2042 38.4652 34.2042C38.2328 34.2042 37.8716 33.9322 37.8716 33.1572V25.9252C37.8716 24.9958 37.6067 24.5807 36.8232 24.5807H30.9781C30.3845 24.5807 30.0317 25.0142 30.0317 25.418C30.0317 26.2992 31.3705 26.5017 31.5093 28.9809V34.36C31.5093 35.5387 31.2954 35.7554 30.8208 35.7554C29.5572 35.7554 26.4901 31.2065 24.6725 26.0002C24.3056 24.9902 23.9472 24.5822 22.9938 24.5822H19.275C18.2139 24.5822 18 25.0709 18 25.6177C18 26.5839 19.2637 31.3878 23.8763 37.7345C26.9505 42.0667 31.2798 44.4141 35.2182 44.4141C37.5854 44.4141 37.8744 43.8927 37.8744 42.996C37.8744 38.8565 37.6605 38.4655 38.8463 38.4655C39.3959 38.4655 40.3422 38.7375 42.5522 40.8271C45.0782 43.3048 45.4932 44.4141 46.9071 44.4141H50.6244C51.6841 44.4141 52.221 43.8927 51.9122 42.8642C51.2052 40.701 46.4283 36.2512 46.2129 35.9537Z" fill="#4B729F"/>
</g>
<defs>
<clipPath id="clip0">
<rect width="34" height="34" fill="white" transform="translate(18 17.4973)"/>
</clipPath>
</defs>
</svg>
