<svg width="24" height="24" viewBox="0 0 24 24" fill="none" xmlns="http://www.w3.org/2000/svg">
<rect width="24" height="24" fill="white"/>
<path d="M23.7364 0.263604C24.0559 0.583124 24.085 1.08312 23.8235 1.43545L23.7364 1.5364L18.8949 6.37788C21.2013 7.99724 22.9251 10.4159 23.6413 13.2773C23.762 13.7594 23.469 14.2482 22.9868 14.3689C22.5047 14.4896 22.0159 14.1965 21.8952 13.7144C21.2598 11.1762 19.6907 9.04737 17.599 7.67343L15.4274 9.8451C16.2765 10.7109 16.8 11.8971 16.8 13.2056C16.8 15.8565 14.651 18.0056 12 18.0056C10.6916 18.0056 9.50539 17.482 8.63955 16.633L1.5364 23.7364C1.18492 24.0879 0.615076 24.0879 0.263604 23.7364C-0.0559161 23.4169 -0.0849632 22.9169 0.176462 22.5645L0.263604 22.4636L7.59985 15.1266L7.5984 15.1248L15.9375 6.78939L15.936 6.7872L17.2959 5.43058L22.4636 0.263604C22.8151 -0.087868 23.3849 -0.087868 23.7364 0.263604ZM12 4.2C13.2003 4.2 14.365 4.37769 15.4667 4.71L13.9823 6.19343C13.3394 6.06638 12.6763 6 12 6C7.29232 6 3.22812 9.21632 2.10343 13.7198C1.98299 14.202 1.49443 14.4953 1.01218 14.3749C0.529935 14.2545 0.23663 13.7659 0.357065 13.2836C1.68078 7.98326 6.46138 4.2 12 4.2ZM11.7664 8.41114L7.2048 12.972C7.3269 10.5037 9.30331 8.52917 11.7664 8.41114Z" fill="#B8B4CB"/>
</svg>
