<svg width="24" height="24" viewBox="0 0 24 24" fill="none" xmlns="http://www.w3.org/2000/svg">
<rect width="24" height="24" fill="white"/>
<path d="M12.0008 9.26478C14.7269 9.26478 16.9368 11.4441 16.9368 14.1324C16.9368 16.8207 14.7269 19 12.0008 19C9.27465 19 7.0647 16.8207 7.0647 14.1324C7.0647 11.4441 9.27465 9.26478 12.0008 9.26478ZM12.0008 5C17.6939 5 22.6085 8.83325 23.9721 14.2051C24.0962 14.6941 23.7949 15.1897 23.299 15.3121C22.8032 15.4345 22.3006 15.1373 22.1765 14.6484C21.0179 10.0842 16.8398 6.82535 12.0008 6.82535C7.15963 6.82535 2.98023 10.087 1.82366 14.6539C1.69981 15.1429 1.1974 15.4403 0.701482 15.3182C0.205567 15.1961 -0.096052 14.7006 0.027797 14.2116C1.38903 8.83655 6.30514 5 12.0008 5Z" fill="#B8B4CB"/>
</svg>
