<svg width="24" height="24" viewBox="0 0 24 24" fill="none" xmlns="http://www.w3.org/2000/svg">
<rect width="24" height="24" fill="white"/>
<path d="M8 2.99667C8 1.34165 9.34315 0 11 0H13C14.6569 0 16 1.34166 16 2.99667V24H15.6667C15.5498 24 15.4376 23.98 15.3333 23.9432C15.2291 23.98 15.1169 24 15 24H9C8.88312 24 8.77092 23.98 8.66666 23.9432C8.5624 23.98 8.45021 24 8.33333 24H8V2.99667Z" fill="#B8B4CB"/>
<path d="M6 9.34961H3C1.34315 9.34961 0 10.6913 0 12.3463V23.0011C0 23.5528 0.447715 24 1 24H6V9.34961Z" fill="#B8B4CB"/>
<path d="M18 24H23C23.5523 24 24 23.5528 24 23.0011V8.35072C24 6.6957 22.6569 5.35405 21 5.35405H18V24Z" fill="#B8B4CB"/>
</svg>
