<svg width="24" height="24" viewBox="0 0 24 24" fill="none" xmlns="http://www.w3.org/2000/svg">
<rect width="24" height="24" fill="white"/>
<path d="M11.0249 9.08058L11.0262 23.9991L4.21597 24C1.96787 24 0.130702 22.2408 0.00667387 20.024L0 19.7848V9.08058H11.0249ZM12.9707 16.8628H23.9982L23.9992 19.7847C23.999 22.1127 22.1115 24 19.7832 24L12.972 23.9991L12.9707 16.8628ZM19.784 0C22.0321 0 23.8693 1.75924 23.9933 3.97608L24 4.21528L23.9982 14.9173H12.9707L12.972 0H19.784ZM11.0262 0L11.0249 7.13502H0L0.000779067 4.21531C0.00105008 1.88734 1.88849 0 4.21674 0H11.0262Z" fill="#7034FA"/>
</svg>
