<svg width="24" height="24" viewBox="0 0 24 24" fill="none" xmlns="http://www.w3.org/2000/svg">
<rect width="24" height="24" fill="white"/>
<path d="M12.0136 0C12.9545 0.0104117 13.8916 0.114784 14.8099 0.311432C15.2108 0.397275 15.5106 0.718169 15.5561 1.11011L15.7742 2.98931C15.873 3.85215 16.6317 4.50566 17.5362 4.50657C17.7793 4.50694 18.0198 4.45832 18.2445 4.36288L20.0398 3.60562C20.4132 3.44812 20.8494 3.53399 21.1282 3.81984C22.4256 5.15034 23.3918 6.74605 23.9542 8.48689C24.0755 8.86227 23.9359 9.27022 23.6064 9.50341L22.0151 10.6297C21.5612 10.9499 21.2931 11.4585 21.2931 11.9994C21.2931 12.5402 21.5612 13.0488 22.0161 13.3697L23.6088 14.4964C23.9384 14.7296 24.0781 15.1376 23.9568 15.513C23.3946 17.2536 22.4289 18.8492 21.1323 20.1799C20.8538 20.4657 20.4178 20.5518 20.0445 20.3947L18.2419 19.6364C17.7262 19.4197 17.1339 19.4514 16.6465 19.7219C16.1591 19.9923 15.8348 20.4692 15.7729 21.0065L15.5561 22.8855C15.5115 23.2729 15.2181 23.5917 14.8231 23.6819C12.9665 24.106 11.0322 24.106 9.17557 23.6819C8.78062 23.5917 8.48727 23.2729 8.44258 22.8855L8.22618 21.0093C8.16262 20.473 7.83778 19.9976 7.3508 19.728C6.86383 19.4585 6.27253 19.4269 5.75853 19.6424L3.95552 20.4009C3.58207 20.558 3.14602 20.4718 2.86754 20.1858C1.57017 18.8536 0.604424 17.2561 0.0430072 15.5136C-0.0779155 15.1383 0.0617993 14.7307 0.3912 14.4976L1.9849 13.3703C2.43883 13.05 2.70693 12.5415 2.70693 12.0006C2.70693 11.4597 2.43883 10.9512 1.9843 10.6305L0.391605 9.50507C0.0617151 9.27196 -0.0781282 8.86376 0.0432208 8.48813C0.60561 6.74728 1.57186 5.15157 2.86927 3.82108C3.14801 3.53522 3.58427 3.44935 3.95766 3.60685L5.75265 4.36398C6.26914 4.58162 6.86292 4.54875 7.35253 4.27409C7.84002 4.00258 8.16456 3.52521 8.22722 2.98788L8.44522 1.11011C8.49075 0.717971 8.79082 0.396974 9.19194 0.311314C10.1113 0.114979 11.0495 0.0106508 12.0136 0ZM11.9977 8.30765C9.87391 8.30765 8.15227 9.96076 8.15227 12C8.15227 14.0392 9.87391 15.6923 11.9977 15.6923C14.1214 15.6923 15.843 14.0392 15.843 12C15.843 9.96076 14.1214 8.30765 11.9977 8.30765Z" fill="#B8B4CB"/>
</svg>
