<svg width="51" height="70" viewBox="0 0 51 70" fill="none" xmlns="http://www.w3.org/2000/svg">
<path d="M22.0802 53.4804V37.092C15.3794 35.6293 10.4714 33.4193 7.34172 30.4587C4.21784 27.4962 2.64958 23.9028 2.64958 19.6783C2.64958 15.3939 4.4191 11.8004 7.95425 8.89522C11.4962 5.98735 16.1981 4.31075 22.0802 3.87334V0H29.5112V3.87334C34.9442 4.36356 39.2689 5.77613 42.4754 8.11632C45.6926 10.4495 47.7363 13.5712 48.6327 17.4815L35.6589 18.7735C34.8781 15.6931 32.8247 13.6126 29.5112 12.5168V27.8131C37.7133 29.5081 43.3018 31.7049 46.2662 34.4121C49.2462 37.1096 50.727 40.5693 50.727 44.7982C50.727 49.5191 48.8534 53.5024 45.1141 56.7333C41.3777 59.9738 36.1674 61.9523 29.5112 62.681V70H22.0802V62.8817C16.1679 62.3246 11.3669 60.6436 7.67715 57.8229C3.9845 55.0065 1.63065 51.032 0.603943 45.8966L13.9784 44.7982C14.5248 46.8805 15.5496 48.69 17.0595 50.1985C18.5587 51.7158 20.2359 52.8098 22.0802 53.4804ZM22.0802 12.3954C20.0589 12.9217 18.4508 13.8124 17.2598 15.0595C16.0687 16.3101 15.465 17.691 15.465 19.2083C15.465 20.5892 16.0065 21.8724 17.1062 23.057C18.199 24.253 19.8528 25.2036 22.0754 25.9323V12.3954H22.0802ZM29.5112 54.0314C32.0693 53.6714 34.1528 52.7649 35.7551 51.3154C37.3652 49.857 38.1654 48.162 38.1654 46.202C38.1654 44.4602 37.4867 42.9482 36.1469 41.6809C34.7974 40.4223 32.5875 39.4472 29.5112 38.7818V54.0314Z" fill="#8FD396"/>
</svg>
