<svg width="59" height="53" viewBox="0 0 59 53" fill="none" xmlns="http://www.w3.org/2000/svg">
<path d="M39.6073 45.2083C31.5199 45.2083 24.528 41.0667 21.0481 35H39.6073V29.1667H18.9216C18.7605 28.2042 18.6638 27.2417 18.6638 26.25C18.6638 25.2583 18.7605 24.2958 18.9216 23.3333H39.6073V17.5H21.0481C24.528 11.4333 31.5521 7.29167 39.6073 7.29167C44.7948 7.29167 49.5635 9.0125 53.2367 11.8708L58.9398 6.70833C53.8167 2.5375 47.0181 0 39.6073 0C26.9768 0 16.2795 7.32083 12.2841 17.5H0.942383V23.3333H10.8019C10.6731 24.2958 10.6086 25.2583 10.6086 26.25C10.6086 27.2417 10.6731 28.2042 10.8019 29.1667H0.942383V35H12.2841C16.2795 45.1792 26.9768 52.5 39.6073 52.5C47.0503 52.5 53.8167 49.9625 58.9398 45.7917L53.2045 40.6292C49.5635 43.4875 44.8271 45.2083 39.6073 45.2083Z" fill="#D26B6B"/>
</svg>
