<svg width="24" height="24" viewBox="0 0 24 24" fill="none" xmlns="http://www.w3.org/2000/svg">
<rect width="24" height="24" fill="#F4F1FC"/>
<path d="M9.72973 0C15.1033 0 19.4595 4.35615 19.4595 9.72973C19.4595 11.9483 18.7169 13.9934 17.4668 15.6302L23.62 21.7854C24.1267 22.292 24.1267 23.1134 23.62 23.62C23.1524 24.0877 22.4165 24.1237 21.9076 23.7279L21.7854 23.62L15.6302 17.4668C13.9934 18.7169 11.9483 19.4595 9.72973 19.4595C4.35615 19.4595 0 15.1033 0 9.72973C0 4.35615 4.35615 0 9.72973 0ZM9.72973 2.59459C5.7891 2.59459 2.59459 5.7891 2.59459 9.72973C2.59459 13.6704 5.7891 16.8649 9.72973 16.8649C13.6704 16.8649 16.8649 13.6704 16.8649 9.72973C16.8649 5.7891 13.6704 2.59459 9.72973 2.59459Z" fill="#B8B4CB"/>
</svg>
